<?xml version="1.0" encoding="utf-8"?>
<!-- Generator: Adobe Illustrator 15.0.2, SVG Export Plug-In . SVG Version: 6.00 Build 0)  -->
<!DOCTYPE svg PUBLIC "-//W3C//DTD SVG 1.1//EN" "http://www.w3.org/Graphics/SVG/1.1/DTD/svg11.dtd">
<svg version="1.1" id="Vrstva_1" xmlns="http://www.w3.org/2000/svg" xmlns:xlink="http://www.w3.org/1999/xlink" x="0px" y="0px"
	 width="595.281px" height="595.281px" viewBox="1119.685 0 595.281 595.281" enable-background="new 1119.685 0 595.281 595.281"
	 xml:space="preserve">
<path fill="#E2004F" d="M1119.685,0h595.281v595.281h-595.281V0z"/>
<path fill="#FFFFFF" d="M1260.858,433.661V166.783c0-21.018,16.625-37.643,37.635-37.643h189.646
	c18.578,0,33.73,15.153,33.73,33.731c0,18.569-15.152,33.234-33.73,33.234h-152.492v69.414h130.507
	c18.576,0,33.73,15.145,33.73,33.723c0,18.586-15.154,33.243-33.73,33.243h-130.507v71.845h154.941
	c18.576,0,33.73,15.153,33.73,33.73c0,18.562-15.154,33.234-33.73,33.234h-192.096
	C1277.483,471.295,1260.858,454.669,1260.858,433.661z"/>
<path fill="#FFFFFF" d="M1599.397,403.637c19.693,0,34.254,14.563,34.254,33.454v0.8c0,18.893-14.561,33.453-34.254,33.453
	c-19.676,0-34.236-14.562-34.236-33.453v-0.8C1565.161,418.199,1579.721,403.637,1599.397,403.637z"/>
</svg>
